<svg xmlns="http://www.w3.org/2000/svg" xmlns:xlink="http://www.w3.org/1999/xlink" viewBox="0 0 200 80"><defs><style>.cls-1{isolation:isolate;}.cls-2{fill:#575756;}.cls-3{fill:#76b72a;}.cls-10,.cls-4{mix-blend-mode:multiply;}.cls-5{fill:url(#Degradado_sin_nombre_50);}.cls-6{fill:url(#Degradado_sin_nombre_50-2);}.cls-7{fill:url(#Degradado_sin_nombre_50-4);}.cls-8{fill:url(#Degradado_sin_nombre_50-5);}.cls-9{fill:url(#Degradado_sin_nombre_7);}.cls-10{fill:url(#Degradado_sin_nombre_14);}.cls-11{fill:url(#Degradado_sin_nombre_14-2);}.cls-12{fill:url(#Degradado_sin_nombre_26);}.cls-13{fill:url(#Degradado_sin_nombre_26-2);}.cls-14{fill:url(#Degradado_sin_nombre_17);}.cls-15{fill:url(#Degradado_sin_nombre_26-3);}.cls-16{fill:url(#Degradado_sin_nombre_14-3);}.cls-17{fill:url(#Degradado_sin_nombre_39);}.cls-18{fill:url(#Degradado_sin_nombre_39-2);}.cls-19{fill:url(#Degradado_sin_nombre_39-3);}.cls-20{fill:url(#Degradado_sin_nombre_19);}</style><linearGradient id="Degradado_sin_nombre_50" x1="5.75" y1="32.93" x2="31.63" y2="77.67" gradientUnits="userSpaceOnUse"><stop offset="0" stop-color="#fff"/><stop offset="1" stop-color="#929191"/></linearGradient><linearGradient id="Degradado_sin_nombre_50-2" x1="34.08" y1="55.38" x2="2.61" y2="55.38" xlink:href="#Degradado_sin_nombre_50"/><linearGradient id="Degradado_sin_nombre_50-4" x1="94.32" y1="49.35" x2="88.27" y2="49.35" xlink:href="#Degradado_sin_nombre_50"/><linearGradient id="Degradado_sin_nombre_50-5" x1="79.99" y1="55.38" x2="98.65" y2="55.38" xlink:href="#Degradado_sin_nombre_50"/><linearGradient id="Degradado_sin_nombre_7" x1="41.9" y1="61.04" x2="73.05" y2="61.04" gradientUnits="userSpaceOnUse"><stop offset="0" stop-color="#868686"/><stop offset="0.21" stop-color="#b9b9b9"/><stop offset="0.4" stop-color="#dfdfdf"/><stop offset="0.55" stop-color="#f6f6f6"/><stop offset="0.65" stop-color="#fff"/><stop offset="0.7" stop-color="#f6f6f6"/><stop offset="0.78" stop-color="#dfdfdf"/><stop offset="0.89" stop-color="#b8b8b8"/><stop offset="1" stop-color="#868686"/></linearGradient><linearGradient id="Degradado_sin_nombre_14" x1="163.04" y1="45.64" x2="146.35" y2="65.6" gradientUnits="userSpaceOnUse"><stop offset="0.65" stop-color="#fff"/><stop offset="1" stop-color="#9c9b9b"/></linearGradient><linearGradient id="Degradado_sin_nombre_14-2" x1="163.41" y1="77.34" x2="153.5" y2="66.03" xlink:href="#Degradado_sin_nombre_14"/><linearGradient id="Degradado_sin_nombre_26" x1="118.48" y1="52.75" x2="129.27" y2="53.11" gradientUnits="userSpaceOnUse"><stop offset="0" stop-color="#9c9b9b"/><stop offset="0.65" stop-color="#fff"/><stop offset="1" stop-color="#9c9b9b"/></linearGradient><linearGradient id="Degradado_sin_nombre_26-2" x1="128.76" y1="55.38" x2="106.38" y2="55.38" xlink:href="#Degradado_sin_nombre_26"/><linearGradient id="Degradado_sin_nombre_17" x1="136.26" y1="55.38" x2="143.77" y2="55.38" gradientUnits="userSpaceOnUse"><stop offset="0" stop-color="#9c9b9b"/><stop offset="1" stop-color="#fff"/></linearGradient><linearGradient id="Degradado_sin_nombre_26-3" x1="166.35" y1="61.04" x2="197.5" y2="61.04" xlink:href="#Degradado_sin_nombre_26"/><linearGradient id="Degradado_sin_nombre_14-3" x1="165.92" y1="59.57" x2="147.09" y2="60.37" xlink:href="#Degradado_sin_nombre_14"/><radialGradient id="Degradado_sin_nombre_39" cx="127.75" cy="38.56" r="14.58" gradientTransform="translate(4.69 1.52) scale(0.95 0.95)" gradientUnits="userSpaceOnUse"><stop offset="0.83" stop-color="#fff"/><stop offset="1" stop-color="#9c9b9b"/></radialGradient><radialGradient id="Degradado_sin_nombre_39-2" cx="127.54" cy="38.66" r="24.8" xlink:href="#Degradado_sin_nombre_39"/><radialGradient id="Degradado_sin_nombre_39-3" cx="127.93" cy="38.18" r="35.07" xlink:href="#Degradado_sin_nombre_39"/><radialGradient id="Degradado_sin_nombre_19" cx="128.94" cy="36.58" r="5.8" gradientTransform="translate(4.69 1.52) scale(0.95 0.95)" gradientUnits="userSpaceOnUse"><stop offset="0.44" stop-color="#fff"/><stop offset="1" stop-color="#9c9b9b"/></radialGradient></defs><title>logo-netlike-solo-A-01</title><g class="cls-1"><g id="Capa_1" data-name="Capa 1"><polygon class="cls-2" points="26.9 62.01 10.56 34.15 2.5 34.15 2.5 34.15 2.5 35.01 2.5 76.61 10.56 76.61 10.56 48.75 26.9 76.61 34.97 76.61 34.97 76.61 34.97 75.76 34.97 34.15 26.9 34.15 26.9 62.01"/><path class="cls-2" d="M95.57,68.58A7.54,7.54,0,0,1,88,61h0V53.25h6.63V45.46H88.05V34.15H80V61A15.57,15.57,0,0,0,95.57,76.61h3.08v-8Z"/><path class="cls-2" d="M57.48,45.46A15.58,15.58,0,1,0,70.34,69.77l-7.77-3.21a7.39,7.39,0,0,1-5.09,2A7.55,7.55,0,1,1,64.36,58H56.69a3.18,3.18,0,0,0,0,6.17H72.75A15.61,15.61,0,0,0,57.48,45.46Z"/><path class="cls-3" d="M125.66,34.15a4,4,0,1,0,4,4A4,4,0,0,0,125.66,34.15Z"/><path class="cls-3" d="M120.19,32.87a7.86,7.86,0,0,1,10.95,0c3.11,2.87,7.78-1.78,4.65-4.66a14.62,14.62,0,0,0-20.26,0c-3.12,2.88,1.54,7.53,4.66,4.66Z"/><path class="cls-3" d="M112.45,25.72a19,19,0,0,1,26.43,0c3.09,2.88,7.76-1.76,4.65-4.66a25.72,25.72,0,0,0-35.74,0c-3.11,2.9,1.56,7.54,4.66,4.66Z"/><path class="cls-3" d="M104.45,18.54a30.39,30.39,0,0,1,42.42,0c3.07,2.92,7.74-1.73,4.66-4.66a37.14,37.14,0,0,0-51.74,0c-3.07,2.93,1.59,7.58,4.66,4.66Z"/><path class="cls-3" d="M166.66,45.46h-10L145.82,60.25V34.15h-8.06V72.58A4,4,0,0,0,145,75l5.2-7.11,6.42,8.75h10L155.24,61Z"/><rect class="cls-3" x="121.63" y="45.46" width="8.06" height="15.06"/><rect class="cls-3" x="121.63" y="45.46" width="8.06" height="15.06"/><path class="cls-3" d="M113.53,61h0V34.15H105.5V61a15.57,15.57,0,0,0,15.58,15.57h8.61v-8h-8.61A7.54,7.54,0,0,1,113.53,61Z"/><path class="cls-3" d="M187,66.56a7.44,7.44,0,0,1-5.1,2A7.55,7.55,0,1,1,188.8,58h-7.66a3.18,3.18,0,0,0,0,6.17h16.05a15.57,15.57,0,1,0-15.27,12.49,15.53,15.53,0,0,0,12.87-6.84Z"/><g class="cls-4"><polygon class="cls-5" points="10.56 34.15 34.97 75.76 34.97 76.61 26.9 76.61 2.5 35.01 2.5 34.15 10.56 34.15"/><rect class="cls-6" x="2.5" y="34.15" width="8.06" height="42.46"/><rect class="cls-6" x="26.9" y="34.15" width="8.06" height="42.46"/><rect class="cls-7" x="88.05" y="45.46" width="6.63" height="7.79"/><path class="cls-8" d="M95.57,68.58A7.54,7.54,0,0,1,88,61h0V34.15H80V61A15.57,15.57,0,0,0,95.57,76.61h3.08v-8Z"/><path class="cls-9" d="M62.57,66.56a7.39,7.39,0,0,1-5.09,2A7.55,7.55,0,1,1,64.36,58H56.69a3.18,3.18,0,0,0,0,6.17H72.75A15.58,15.58,0,1,0,57.48,76.61a15.52,15.52,0,0,0,12.86-6.84Z"/></g><g class="cls-4"><path class="cls-10" d="M156.66,45.46,145.84,60.23l0,0V72.58A4,4,0,0,1,145,75l5.2-7.11,5-6.82,11.42-15.58Z"/><polygon class="cls-11" points="166.66 76.61 156.66 76.61 150.24 67.86 155.24 61.04 166.66 76.61"/><rect class="cls-12" x="121.63" y="45.46" width="8.06" height="15.06"/><path class="cls-13" d="M121.08,68.58A7.54,7.54,0,0,1,113.53,61h0V34.15H105.5V61a15.57,15.57,0,0,0,15.58,15.57h8.61v-8Z"/><path class="cls-14" d="M137.76,34.15V72.58a4,4,0,1,0,8.06,0V34.15Z"/><path class="cls-15" d="M187,66.56a7.44,7.44,0,0,1-5.1,2A7.55,7.55,0,1,1,188.8,58h-7.66a3.18,3.18,0,0,0,0,6.17h16.05a15.57,15.57,0,1,0-15.27,12.49,15.53,15.53,0,0,0,12.87-6.84Z"/><path class="cls-16" d="M156.66,45.46,145.84,60.23l0,0V72.58A4,4,0,0,1,145,75l5.2-7.11,5-6.82,11.42-15.58Z"/></g><g class="cls-4"><path class="cls-17" d="M120.19,32.87a7.86,7.86,0,0,1,10.95,0c3.11,2.87,7.78-1.78,4.65-4.66a14.62,14.62,0,0,0-20.26,0c-3.12,2.88,1.54,7.53,4.66,4.66Z"/></g><g class="cls-4"><path class="cls-18" d="M112.45,25.72a19,19,0,0,1,26.43,0c3.09,2.88,7.76-1.76,4.65-4.66a25.72,25.72,0,0,0-35.74,0c-3.11,2.9,1.56,7.54,4.66,4.66Z"/></g><g class="cls-4"><path class="cls-19" d="M104.45,18.54a30.39,30.39,0,0,1,42.42,0c3.07,2.92,7.74-1.73,4.66-4.66a37.14,37.14,0,0,0-51.74,0c-3.07,2.93,1.59,7.58,4.66,4.66Z"/></g><g class="cls-4"><path class="cls-20" d="M125.66,34.15a4,4,0,1,0,4,4A4,4,0,0,0,125.66,34.15Z"/></g></g></g></svg>